<?xml version="1.0" encoding="UTF-8"?>
<svg xmlns="http://www.w3.org/2000/svg" width="420" height="411.07" viewBox="0 0 420 411.07">
  <defs>
    <style>
      .cls-1 {
        fill: #232323;
      }

      .cls-2, .cls-3 {
        fill: #ccc;
      }

      .cls-4 {
        fill: none;
        stroke: #2b2b2b;
        stroke-linecap: round;
        stroke-linejoin: round;
        stroke-width: 4.45px;
      }

      .cls-5 {
        fill: #606060;
      }

      .cls-3 {
        fill-rule: evenodd;
      }
    </style>
  </defs>
  <g id="Silk">
    <path class="cls-4" d="M180.32,201.1H91.27"/>
    <path class="cls-4" d="M165.48,67.53H91.27"/>
    <path class="cls-4" d="M210,2.23V23"/>
    <path class="cls-4" d="M210,141.73h133.57"/>
    <path class="cls-4" d="M343.57,2.23H210"/>
    <path class="cls-4" d="M343.57,141.73v-17.81"/>
    <path class="cls-4" d="M91.27,201.1l-14.84-14.84"/>
    <path class="cls-4" d="M91.27,67.53l-14.84,14.84"/>
    <path class="cls-4" d="M195.16,186.25v-29.68"/>
    <path class="cls-4" d="M195.16,186.25l-14.84,14.84"/>
    <path class="cls-4" d="M343.57,17.07V2.23"/>
    <path class="cls-4" d="M165.48,67.53c24.59,0,44.52-19.93,44.52-44.52"/>
    <path class="cls-4" d="M210,141.73h0c-8.2,0-14.84,6.64-14.84,14.84"/>
    <circle class="cls-5" cx="284.2" cy="69.01" r="44.52"/>
    <circle class="cls-5" cx="135.8" cy="134.31" r="44.52"/>
    <path class="cls-3" d="M77.17,95.72v77.17s-77.17,0-77.17,0V95.72s77.17,0,77.17,0Z"/>
    <path class="cls-3" d="M420,30.42V107.6s-77.17,0-77.17,0V30.42s77.17,0,77.17,0Z"/>
  </g>
  <g id="Ebene_3" data-name="Ebene 3">
    <g>
      <path class="cls-1" d="M200.7,237.02c2.81-11.26,12.98-19.6,25.11-19.6h94.95c11.85,0,21.45,9.6,21.45,21.45v86.98c0,11.85-9.6,21.45-21.45,21.45h-82.79c-18.44,0-33.39,14.95-33.39,33.39v1.42c0,3.27-1.3,6.41-3.61,8.72l-16.98,16.98c-2.08,2.08-4.89,3.24-7.83,3.24H99.87c-2.94,0-5.75-1.17-7.83-3.24l-17.42-17.42c-2.08-2.08-3.24-4.89-3.24-7.83v-75.59c0-2.91,1.15-5.71,3.2-7.78l17.46-17.68c2.08-2.11,4.92-3.29,7.88-3.29h52.49s20.22-1.77,33.21-16.68c12.99-14.91,15.08-24.53,15.08-24.53Z"/>
      <rect class="cls-2" x="25.17" y="320.34" width="128.31" height="48.02"/>
      <rect class="cls-2" x="261.13" y="258.63" width="128.31" height="48.02"/>
    </g>
  </g>
</svg>